<svg width="44" height="44" viewBox="0 0 44 44" fill="none" xmlns="http://www.w3.org/2000/svg">
<path d="M0 14C0 6.26801 6.26801 0 14 0H30C37.732 0 44 6.26801 44 14V30C44 37.732 37.732 44 30 44H14C6.26801 44 0 37.732 0 30V14Z" fill="#5856D6"/>
<path d="M20.1184 32H9.0323C8.86499 32 8.77164 31.8068 8.8756 31.6757L20.1184 17.5V32Z" fill="white"/>
<path d="M20.1184 32H35.0232C35.1797 32 35.2756 31.8282 35.1934 31.695L26.5394 17.6705C26.4813 17.5764 26.5107 17.453 26.6049 17.3951L34.779 12.3704C34.9509 12.2647 34.876 12 34.6743 12H20.3184C20.208 12 20.1184 12.0895 20.1184 12.2V17.5M20.1184 32H9.0323C8.86499 32 8.77164 31.8068 8.8756 31.6757L20.1184 17.5M20.1184 32V17.5" stroke="white" stroke-width="2.2"/>
</svg>
