<svg width="29" height="24" viewBox="0 0 29 24" fill="none" xmlns="http://www.w3.org/2000/svg">
<path d="M12.5 22H1.41389C1.24658 22 1.15322 21.8068 1.25719 21.6757L12.5 7.5V22Z" fill="black"/>
<path d="M12.5 22H27.4047C27.5613 22 27.6572 21.8282 27.5749 21.695L18.921 7.6705C18.8629 7.57638 18.8923 7.453 18.9865 7.39509L27.1606 2.37038C27.3325 2.26475 27.2576 2 27.0559 2H12.7C12.5895 2 12.5 2.08954 12.5 2.2V7.5M12.5 22H1.41389C1.24658 22 1.15322 21.8068 1.25719 21.6757L12.5 7.5M12.5 22V7.5" stroke="black" stroke-width="2.2"/>
</svg>
